<svg xmlns="http://www.w3.org/2000/svg" width="110" height="27.794" viewBox="0 0 110 27.794">
  <g id="IRLogo_Green_Blue-01" transform="translate(-0.001)">
    <path id="Path_1" data-name="Path 1" d="M3.342,7.9V21.119H.47v-12c0-.449-.05-.66-.469-.66V5.983H1.427c1.345,0,1.915.568,1.915,1.914M.47,2.872H3.342V0H.47Zm14.9,2.752A6.157,6.157,0,0,0,9.69,9.094H9.63a6.316,6.316,0,0,0,.061-.868v-.57c0-1.107-.632-1.674-1.914-1.674H6.407V8.464c.419,0,.474.21.474.66v12h2.9V14.029A6.2,6.2,0,0,1,10.047,12a4.9,4.9,0,0,1,4.786-3.71A2.411,2.411,0,0,1,17.225,9.5a5.665,5.665,0,0,1,.451,2.581v9.033h2.9V11.427c0-3.858-1.613-5.8-5.205-5.8" fill="#a8ba00"/>
    <path id="Path_2" data-name="Path 2" d="M109.786,7.9V21.119h-2.873v-12c0-.449-.05-.66-.469-.66V5.983h1.426c1.345,0,1.916.568,1.916,1.914m-2.873-5.024h2.872V0h-2.872ZM81.9,13.5v.853H70.71a4.153,4.153,0,0,0,4.437,4.541,4.9,4.9,0,0,0,4.4-2.112l.028-.036,1.842,1.531-.032.044a7.079,7.079,0,0,1-6.261,3.117c-4.2,0-7.336-3.251-7.336-7.906,0-4.583,3.237-7.909,7.425-7.909,4.127,0,6.691,3.017,6.691,7.876m-2.867-1.669-.005-.091a3.773,3.773,0,0,0-3.908-3.706,4.223,4.223,0,0,0-4.268,3.7l-.011.1h8.193Zm38.182,3.425V8.317h3.416V5.983h-3.416V1.915h-2.84V5.983h-2.451V8.317h2.39v7.267c0,5.055,3.856,5.655,5.77,5.655a7.312,7.312,0,0,0,1.016-.06V18.605a3.38,3.38,0,0,1-.684.061c-1.109,0-3.2-.389-3.2-3.41M135.98,5.983a1.954,1.954,0,0,0-2.214,1.526l-3.651,10.349h-.057l-3.98-10.349c-.477-1.2-.925-1.526-2.152-1.526h-1.153V8.465c.479,0,.554.121.765.6L128.7,21.047l-.01.024-.009.005-.043.114-.473,1.077c-.907,2.058-1.5,3.006-3.528,3.018-.422,0-1.869,0-1.869,0v2.509H125.4c1.6,0,3.5-.66,4.818-3.649.257-.577.724-1.676,1.223-2.877.627-1.506,1.305-3.174,1.682-4.176l-.019.016,3.259-8.045c.21-.479.315-.6.793-.6V5.983h-1.18ZM62.607,11.441a5.983,5.983,0,0,0,2.77-5.249A5.782,5.782,0,0,0,61.816.479,10.656,10.656,0,0,0,57.868,0H55.145V2.573h2.633a5.814,5.814,0,0,1,2.9.479,3.457,3.457,0,0,1,1.676,3.26,3.513,3.513,0,0,1-3.74,3.829H55.145v2.573h2.791a1.585,1.585,0,0,1,1.373.8l3.617,6.822a1.588,1.588,0,0,0,1.364.784h2.4l-4.488-8.2a1.11,1.11,0,0,1,.4-1.482m33.761.106v9.572H93.646V19.687c0-.166,0-.324.007-.475s.012-.281.022-.388c.009-.127.019-.239.029-.337h-.06a5.176,5.176,0,0,1-4.818,2.991c-2.6,0-5.143-1.587-5.143-4.607,0-4.876,6.582-5.176,9.125-5.176h.656v-.148c0-2.662-.99-3.621-3.354-3.621-.713,0-2.479.065-2.479,1.053H84.91V8.464c0-2.482,3.769-2.84,5.233-2.84,4.906,0,6.224,2.571,6.224,5.923m-2.873,2.272h-.748c-2.184,0-6.131.121-6.131,2.9,0,1.227.927,2.419,2.841,2.419,2.457,0,4.038-2.569,4.038-4.813ZM100.94,0H99.486V2.484c.418,0,.468.208.468.658V21.119h2.9V1.916C102.857.569,102.288,0,100.94,0" transform="translate(-30.881)" fill="#17375c"/>
    <path id="Path_3" data-name="Path 3" d="M245.069,4.352a1.385,1.385,0,1,0,1.388,1.377,1.381,1.381,0,0,0-1.388-1.377m0,2.566a1.144,1.144,0,0,1-1.145-1.188,1.141,1.141,0,1,1,2.281,0,1.143,1.143,0,0,1-1.136,1.188m.652-1.529c0-.311-.182-.462-.566-.462h-.627V6.544h.252v-.7h.266l.441.7h.27l-.463-.715a.417.417,0,0,0,.427-.441m-.678.256h-.263V5.129h.334c.17,0,.356.033.356.248,0,.256-.2.267-.426.267" transform="translate(-136.455 -2.437)" fill="#17375c"/>
  </g>
</svg>
