<?xml version="1.0" encoding="UTF-8"?> <!-- Generator: Adobe Illustrator 22.1.0, SVG Export Plug-In . SVG Version: 6.00 Build 0) --> <svg xmlns="http://www.w3.org/2000/svg" xmlns:xlink="http://www.w3.org/1999/xlink" id="Layer_1" x="0px" y="0px" viewBox="0 0 471 155.2" style="enable-background:new 0 0 471 155.2;" xml:space="preserve"> <style type="text/css"> .st0{clip-path:url(#SVGID_2_);} .st1{clip-path:url(#SVGID_4_);fill:#878787;} .st2{clip-path:url(#SVGID_6_);fill:url(#SVGID_7_);} .st3{clip-path:url(#SVGID_9_);fill:url(#SVGID_10_);} .st4{clip-path:url(#SVGID_12_);fill:url(#SVGID_13_);} .st5{clip-path:url(#SVGID_15_);fill:url(#SVGID_16_);} .st6{clip-path:url(#SVGID_18_);fill:url(#SVGID_19_);} </style> <g> <defs> <rect id="SVGID_1_" width="543.2" height="155.2"></rect> </defs> <clipPath id="SVGID_2_"> <use xlink:href="#SVGID_1_" style="overflow:visible;"></use> </clipPath> <g class="st0"> <defs> <rect id="SVGID_3_" width="543.2" height="155.2"></rect> </defs> <clipPath id="SVGID_4_"> <use xlink:href="#SVGID_3_" style="overflow:visible;"></use> </clipPath> <path class="st1" d="M51.9,113.4v-5.2c0-0.7-0.1-1.2-0.4-1.6c-0.3-0.4-0.6-0.7-1-1c-0.4-0.2-0.9-0.4-1.4-0.5 c-0.5-0.1-1.1-0.1-1.6-0.1c-0.7,0-1.4,0.1-1.9,0.2c-0.6,0.1-1.1,0.3-1.5,0.6c-0.4,0.3-0.8,0.6-1,1s-0.4,0.9-0.4,1.5H44 c0-0.8,0.3-1.4,0.9-1.7c0.6-0.4,1.4-0.5,2.3-0.5c0.4,0,0.9,0,1.2,0.1c0.4,0.1,0.7,0.2,1,0.3c0.3,0.2,0.5,0.4,0.7,0.6 c0.2,0.3,0.2,0.6,0.2,1c0,0.3,0,0.5-0.1,0.6c-0.1,0.2-0.2,0.3-0.4,0.4c-0.2,0.1-0.4,0.2-0.6,0.2s-0.5,0.1-0.8,0.1 c-0.8,0.1-1.6,0.2-2.4,0.2c-0.8,0.1-1.5,0.2-2.1,0.4c-0.6,0.2-1.1,0.5-1.5,0.9c-0.4,0.4-0.6,0.9-0.6,1.6c0,0.5,0.1,0.9,0.3,1.3 c0.2,0.4,0.5,0.7,0.9,0.9c0.4,0.2,0.8,0.4,1.3,0.5c0.5,0.1,1,0.2,1.6,0.2c0.6,0,1.1,0,1.5-0.1s0.8-0.2,1.2-0.4 c0.3-0.2,0.6-0.4,0.9-0.6c0.3-0.2,0.5-0.5,0.8-0.8h0c0,0.3,0,0.5,0.1,0.7s0.1,0.4,0.2,0.5s0.3,0.3,0.5,0.3 c0.2,0.1,0.5,0.1,0.9,0.1c0.2,0,0.4,0,0.5,0c0.1,0,0.3,0,0.5-0.1v-1c-0.1,0.1-0.3,0.1-0.5,0.1C52.2,114.1,51.9,113.9,51.9,113.4 M50.4,111.4c0,0.5-0.1,0.9-0.3,1.3c-0.2,0.4-0.5,0.7-0.9,1c-0.4,0.3-0.8,0.5-1.4,0.6c-0.5,0.1-1.1,0.2-1.6,0.2 c-0.3,0-0.7,0-1-0.1c-0.3-0.1-0.6-0.2-0.9-0.4c-0.3-0.2-0.5-0.4-0.6-0.6c-0.1-0.2-0.2-0.5-0.2-0.8c0-0.5,0.2-0.8,0.5-1.1 c0.4-0.3,0.8-0.5,1.4-0.6c0.6-0.1,1.2-0.2,1.8-0.3c0.7-0.1,1.3-0.1,1.9-0.2c0.2,0,0.4-0.1,0.7-0.1c0.3-0.1,0.4-0.2,0.5-0.3h0 V111.4z"></path> <path class="st1" d="M66.5,112.8c-0.2,0.3-0.5,0.6-0.8,0.9c-0.3,0.2-0.7,0.4-1.1,0.6c-0.4,0.1-0.8,0.2-1.3,0.2 c-0.7,0-1.3-0.1-1.9-0.4s-1-0.6-1.3-0.9c-0.4-0.4-0.6-0.8-0.8-1.3c-0.2-0.5-0.3-1-0.3-1.5c0-0.5,0.1-1,0.3-1.5s0.4-0.9,0.8-1.3 c0.4-0.4,0.8-0.7,1.3-0.9c0.5-0.2,1.2-0.4,1.9-0.4c1,0,1.8,0.2,2.3,0.6c0.6,0.4,0.9,1,1.1,1.7h1.5c-0.2-1.1-0.7-2-1.6-2.5 c-0.9-0.6-2-0.8-3.3-0.8c-0.9,0-1.8,0.1-2.5,0.4c-0.7,0.3-1.3,0.6-1.8,1.1c-0.5,0.5-0.9,1-1.1,1.6c-0.3,0.6-0.4,1.3-0.4,2 c0,0.7,0.1,1.4,0.4,2s0.6,1.2,1.1,1.6c0.5,0.5,1.1,0.8,1.8,1.1c0.7,0.3,1.5,0.4,2.5,0.4c1.4,0,2.5-0.3,3.4-1 c0.9-0.7,1.4-1.6,1.6-2.8h-1.5C66.8,112,66.7,112.4,66.5,112.8"></path> <path class="st1" d="M82,112.8c-0.2,0.3-0.5,0.6-0.8,0.9c-0.3,0.2-0.7,0.4-1.1,0.6c-0.4,0.1-0.8,0.2-1.3,0.2 c-0.7,0-1.3-0.1-1.9-0.4c-0.5-0.2-1-0.6-1.3-0.9c-0.4-0.4-0.6-0.8-0.8-1.3c-0.2-0.5-0.3-1-0.3-1.5c0-0.5,0.1-1,0.3-1.5 s0.4-0.9,0.8-1.3c0.4-0.4,0.8-0.7,1.3-0.9c0.5-0.2,1.2-0.4,1.9-0.4c1,0,1.8,0.2,2.3,0.6c0.6,0.4,0.9,1,1.1,1.7h1.5 c-0.2-1.1-0.7-2-1.6-2.5c-0.9-0.6-2-0.8-3.3-0.8c-0.9,0-1.8,0.1-2.5,0.4s-1.3,0.6-1.8,1.1c-0.5,0.5-0.9,1-1.1,1.6 c-0.3,0.6-0.4,1.3-0.4,2c0,0.7,0.1,1.4,0.4,2s0.6,1.2,1.1,1.6c0.5,0.5,1.1,0.8,1.8,1.1c0.7,0.3,1.5,0.4,2.5,0.4 c1.4,0,2.5-0.3,3.4-1c0.9-0.7,1.4-1.6,1.6-2.8h-1.5C82.3,112,82.2,112.4,82,112.8"></path> <path class="st1" d="M99.2,108.6c-0.2-0.7-0.5-1.2-0.9-1.8c-0.4-0.5-1-0.9-1.7-1.2c-0.7-0.3-1.5-0.5-2.5-0.5c-1,0-1.8,0.1-2.5,0.4 c-0.7,0.3-1.3,0.7-1.7,1.2s-0.8,1-1,1.7c-0.2,0.6-0.3,1.2-0.3,1.9c0,0.7,0.1,1.4,0.3,2c0.2,0.6,0.5,1.2,1,1.6 c0.4,0.5,1,0.8,1.7,1.1c0.7,0.3,1.5,0.4,2.5,0.4c1.5,0,2.7-0.3,3.6-0.9c0.8-0.6,1.4-1.5,1.7-2.6h-1.5c-0.2,0.8-0.7,1.4-1.3,1.8 c-0.6,0.5-1.5,0.7-2.6,0.7c-0.7,0-1.3-0.1-1.8-0.4c-0.5-0.2-0.9-0.5-1.3-0.9c-0.3-0.4-0.6-0.8-0.7-1.2c-0.2-0.5-0.2-0.9-0.2-1.3 h9.4C99.5,109.9,99.4,109.2,99.2,108.6 M90.1,109.6c0.1-0.4,0.2-0.9,0.4-1.3c0.2-0.4,0.5-0.8,0.8-1.1c0.3-0.3,0.7-0.6,1.2-0.8 c0.5-0.2,1-0.3,1.6-0.3c0.6,0,1.1,0.1,1.6,0.3c0.5,0.2,0.9,0.5,1.2,0.8c0.3,0.3,0.6,0.7,0.8,1.1s0.3,0.8,0.3,1.3H90.1z"></path> <rect x="104.7" y="101.6" class="st1" width="1.5" height="13.5"></rect> <path class="st1" d="M122.4,108.6c-0.2-0.7-0.5-1.2-0.9-1.8c-0.4-0.5-1-0.9-1.7-1.2c-0.7-0.3-1.5-0.5-2.5-0.5 c-1,0-1.8,0.1-2.5,0.4c-0.7,0.3-1.3,0.7-1.7,1.2s-0.8,1-1,1.7c-0.2,0.6-0.3,1.2-0.3,1.9c0,0.7,0.1,1.4,0.3,2 c0.2,0.6,0.5,1.2,1,1.6c0.4,0.5,1,0.8,1.7,1.1c0.7,0.3,1.5,0.4,2.5,0.4c1.5,0,2.7-0.3,3.6-0.9c0.8-0.6,1.4-1.5,1.7-2.6h-1.5 c-0.2,0.8-0.7,1.4-1.3,1.8c-0.6,0.5-1.5,0.7-2.6,0.7c-0.7,0-1.3-0.1-1.8-0.4c-0.5-0.2-0.9-0.5-1.3-0.9c-0.3-0.4-0.6-0.8-0.7-1.2 c-0.2-0.5-0.2-0.9-0.2-1.3h9.4C122.6,109.9,122.6,109.2,122.4,108.6 M113.2,109.6c0.1-0.4,0.2-0.9,0.4-1.3 c0.2-0.4,0.5-0.8,0.8-1.1c0.3-0.3,0.7-0.6,1.2-0.8c0.5-0.2,1-0.3,1.6-0.3c0.6,0,1.1,0.1,1.6,0.3c0.5,0.2,0.9,0.5,1.2,0.8 c0.3,0.3,0.6,0.7,0.8,1.1s0.3,0.8,0.3,1.3H113.2z"></path> <path class="st1" d="M129.3,107.7L129.3,107.7l0-2.3h-1.4v9.8h1.5v-5.2c0-0.5,0.1-1,0.3-1.4c0.2-0.4,0.5-0.8,0.9-1.1 c0.4-0.3,0.9-0.6,1.4-0.7c0.6-0.2,1.2-0.2,1.8-0.2v-1.2c-1.1,0-2.1,0.2-2.8,0.6C130.3,106.3,129.7,106.9,129.3,107.7"></path> <path class="st1" d="M147.9,113.4v-5.2c0-0.7-0.1-1.2-0.4-1.6c-0.3-0.4-0.6-0.7-1-1c-0.4-0.2-0.9-0.4-1.4-0.5 c-0.5-0.1-1.1-0.1-1.6-0.1c-0.7,0-1.4,0.1-1.9,0.2c-0.6,0.1-1.1,0.3-1.5,0.6c-0.4,0.3-0.8,0.6-1,1s-0.4,0.9-0.4,1.5h1.5 c0-0.8,0.3-1.4,0.9-1.7c0.6-0.4,1.4-0.5,2.3-0.5c0.4,0,0.9,0,1.2,0.1c0.4,0.1,0.7,0.2,1,0.3c0.3,0.2,0.5,0.4,0.7,0.6 c0.2,0.3,0.2,0.6,0.2,1c0,0.3,0,0.5-0.1,0.6c-0.1,0.2-0.2,0.3-0.4,0.4c-0.2,0.1-0.4,0.2-0.6,0.2c-0.2,0-0.5,0.1-0.8,0.1 c-0.8,0.1-1.6,0.2-2.4,0.2c-0.8,0.1-1.5,0.2-2.1,0.4c-0.6,0.2-1.1,0.5-1.5,0.9s-0.6,0.9-0.6,1.6c0,0.5,0.1,0.9,0.3,1.3 c0.2,0.4,0.5,0.7,0.9,0.9c0.4,0.2,0.8,0.4,1.3,0.5c0.5,0.1,1,0.2,1.6,0.2c0.6,0,1.1,0,1.5-0.1s0.8-0.2,1.2-0.4 c0.3-0.2,0.6-0.4,0.9-0.6c0.3-0.2,0.5-0.5,0.8-0.8h0c0,0.3,0,0.5,0.1,0.7s0.1,0.4,0.2,0.5c0.1,0.2,0.3,0.3,0.5,0.3 c0.2,0.1,0.5,0.1,0.9,0.1c0.2,0,0.4,0,0.5,0c0.1,0,0.3,0,0.5-0.1v-1c-0.1,0.1-0.3,0.1-0.5,0.1 C148.2,114.1,147.9,113.9,147.9,113.4 M146.4,111.4c0,0.5-0.1,0.9-0.3,1.3c-0.2,0.4-0.5,0.7-0.9,1s-0.8,0.5-1.4,0.6 c-0.5,0.1-1.1,0.2-1.6,0.2c-0.3,0-0.7,0-1-0.1c-0.3-0.1-0.6-0.2-0.9-0.4c-0.3-0.2-0.5-0.4-0.6-0.6c-0.1-0.2-0.2-0.5-0.2-0.8 c0-0.5,0.2-0.8,0.5-1.1c0.4-0.3,0.8-0.5,1.4-0.6c0.6-0.1,1.2-0.2,1.8-0.3c0.7-0.1,1.3-0.1,1.9-0.2c0.2,0,0.4-0.1,0.7-0.1 c0.3-0.1,0.4-0.2,0.5-0.3h0V111.4z"></path> <path class="st1" d="M156.5,102.5H155v2.9h-2.1v1h2.1v6.7c0,0.8,0.2,1.4,0.6,1.7c0.4,0.3,1.1,0.5,2.1,0.5c0.2,0,0.4,0,0.7,0 c0.2,0,0.4,0,0.7,0v-1c-0.4,0-0.9,0.1-1.3,0.1c-0.5,0-0.9-0.1-1-0.4c-0.1-0.2-0.2-0.5-0.2-0.9v-6.6h2.5v-1h-2.5V102.5z"></path> <path class="st1" d="M174.4,108.6c-0.2-0.7-0.5-1.2-0.9-1.8c-0.4-0.5-1-0.9-1.7-1.2c-0.7-0.3-1.5-0.5-2.5-0.5 c-1,0-1.8,0.1-2.5,0.4c-0.7,0.3-1.3,0.7-1.7,1.2c-0.4,0.5-0.8,1-1,1.7c-0.2,0.6-0.3,1.2-0.3,1.9c0,0.7,0.1,1.4,0.3,2 c0.2,0.6,0.5,1.2,1,1.6c0.4,0.5,1,0.8,1.7,1.1c0.7,0.3,1.5,0.4,2.5,0.4c1.5,0,2.7-0.3,3.6-0.9c0.8-0.6,1.4-1.5,1.7-2.6h-1.5 c-0.2,0.8-0.7,1.4-1.3,1.8c-0.6,0.5-1.5,0.7-2.6,0.7c-0.7,0-1.3-0.1-1.8-0.4s-0.9-0.5-1.3-0.9c-0.3-0.4-0.6-0.8-0.7-1.2 c-0.1-0.5-0.2-0.9-0.2-1.3h9.4C174.6,109.9,174.6,109.2,174.4,108.6 M165.2,109.6c0.1-0.4,0.2-0.9,0.4-1.3 c0.2-0.4,0.5-0.8,0.8-1.1c0.3-0.3,0.7-0.6,1.2-0.8c0.5-0.2,1-0.3,1.6-0.3c0.6,0,1.1,0.1,1.6,0.3c0.5,0.2,0.9,0.5,1.2,0.8 c0.3,0.3,0.6,0.7,0.8,1.1s0.3,0.8,0.3,1.3H165.2z"></path> <path class="st1" d="M189.1,107.2L189.1,107.2c-0.2-0.4-0.4-0.7-0.7-0.9c-0.3-0.3-0.6-0.5-1-0.7c-0.4-0.2-0.8-0.3-1.2-0.4 c-0.4-0.1-0.9-0.1-1.3-0.1c-0.9,0-1.7,0.1-2.4,0.4c-0.7,0.3-1.3,0.7-1.7,1.1c-0.5,0.5-0.8,1-1,1.6c-0.2,0.6-0.3,1.3-0.3,2 c0,0.7,0.1,1.4,0.3,2c0.2,0.6,0.6,1.2,1,1.6c0.5,0.5,1,0.8,1.7,1.1c0.7,0.3,1.5,0.4,2.4,0.4c0.4,0,0.9-0.1,1.3-0.2 c0.4-0.1,0.9-0.2,1.3-0.4c0.4-0.2,0.7-0.4,1.1-0.7c0.3-0.3,0.5-0.6,0.7-0.9h0v1.9h1.4v-13.5h-1.5V107.2z M188.9,111.8 c-0.1,0.5-0.4,0.9-0.7,1.3c-0.3,0.4-0.8,0.7-1.3,1c-0.5,0.2-1.2,0.4-2,0.4c-0.7,0-1.3-0.1-1.8-0.4c-0.5-0.2-0.9-0.6-1.2-1 c-0.3-0.4-0.6-0.8-0.7-1.3c-0.2-0.5-0.2-1-0.2-1.5c0-0.5,0.1-1,0.2-1.5c0.1-0.5,0.4-0.9,0.7-1.3c0.3-0.4,0.7-0.7,1.2-1 c0.5-0.2,1.1-0.4,1.8-0.4c0.8,0,1.5,0.1,2,0.4c0.5,0.2,1,0.6,1.3,1c0.3,0.4,0.6,0.8,0.7,1.3c0.1,0.5,0.2,1,0.2,1.5 C189.1,110.8,189,111.3,188.9,111.8"></path> <path class="st1" d="M215.8,107.2L215.8,107.2c-0.2-0.4-0.4-0.7-0.7-0.9c-0.3-0.3-0.6-0.5-1-0.7c-0.4-0.2-0.8-0.3-1.2-0.4 c-0.4-0.1-0.9-0.1-1.3-0.1c-0.9,0-1.7,0.1-2.4,0.4c-0.7,0.3-1.3,0.7-1.7,1.1c-0.5,0.5-0.8,1-1,1.6c-0.2,0.6-0.3,1.3-0.3,2 c0,0.7,0.1,1.4,0.3,2c0.2,0.6,0.6,1.2,1,1.6c0.5,0.5,1,0.8,1.7,1.1c0.7,0.3,1.5,0.4,2.4,0.4c0.4,0,0.9-0.1,1.3-0.2 c0.4-0.1,0.9-0.2,1.3-0.4c0.4-0.2,0.7-0.4,1.1-0.7c0.3-0.3,0.5-0.6,0.7-0.9h0v1.9h1.4v-13.5h-1.5V107.2z M215.5,111.8 c-0.1,0.5-0.4,0.9-0.7,1.3c-0.3,0.4-0.8,0.7-1.3,1c-0.5,0.2-1.2,0.4-2,0.4c-0.7,0-1.3-0.1-1.8-0.4c-0.5-0.2-0.9-0.6-1.2-1 c-0.3-0.4-0.6-0.8-0.7-1.3c-0.2-0.5-0.2-1-0.2-1.5c0-0.5,0.1-1,0.2-1.5c0.1-0.5,0.4-0.9,0.7-1.3c0.3-0.4,0.7-0.7,1.2-1 c0.5-0.2,1.1-0.4,1.8-0.4c0.8,0,1.5,0.1,2,0.4c0.5,0.2,1,0.6,1.3,1c0.3,0.4,0.6,0.8,0.7,1.3c0.1,0.5,0.2,1,0.2,1.5 C215.8,110.8,215.7,111.3,215.5,111.8"></path> <path class="st1" d="M233.4,108.6c-0.2-0.7-0.5-1.2-0.9-1.8c-0.4-0.5-1-0.9-1.7-1.2c-0.7-0.3-1.5-0.5-2.5-0.5 c-1,0-1.8,0.1-2.5,0.4c-0.7,0.3-1.3,0.7-1.7,1.2c-0.4,0.5-0.8,1-1,1.7c-0.2,0.6-0.3,1.2-0.3,1.9c0,0.7,0.1,1.4,0.3,2 c0.2,0.6,0.5,1.2,1,1.6c0.4,0.5,1,0.8,1.7,1.1c0.7,0.3,1.5,0.4,2.5,0.4c1.5,0,2.7-0.3,3.6-0.9c0.8-0.6,1.4-1.5,1.7-2.6h-1.5 c-0.2,0.8-0.7,1.4-1.3,1.8c-0.6,0.5-1.5,0.7-2.6,0.7c-0.7,0-1.3-0.1-1.8-0.4s-0.9-0.5-1.3-0.9c-0.3-0.4-0.6-0.8-0.7-1.2 c-0.1-0.5-0.2-0.9-0.2-1.3h9.4C233.6,109.9,233.5,109.2,233.4,108.6 M224.2,109.6c0.1-0.4,0.2-0.9,0.4-1.3 c0.2-0.4,0.5-0.8,0.8-1.1c0.3-0.3,0.7-0.6,1.2-0.8c0.5-0.2,1-0.3,1.6-0.3c0.6,0,1.1,0.1,1.6,0.3c0.5,0.2,0.9,0.5,1.2,0.8 c0.3,0.3,0.6,0.7,0.8,1.1s0.3,0.8,0.3,1.3H224.2z"></path> <polygon class="st1" points="243,113.9 243,113.9 239.1,105.4 237.5,105.4 242.2,115.1 243.8,115.1 248.3,105.4 246.8,105.4 "></polygon> <path class="st1" d="M263.1,108.6c-0.2-0.7-0.5-1.2-0.9-1.8c-0.4-0.5-1-0.9-1.7-1.2c-0.7-0.3-1.5-0.5-2.5-0.5 c-1,0-1.8,0.1-2.5,0.4c-0.7,0.3-1.3,0.7-1.7,1.2c-0.4,0.5-0.8,1-1,1.7c-0.2,0.6-0.3,1.2-0.3,1.9c0,0.7,0.1,1.4,0.3,2 c0.2,0.6,0.5,1.2,1,1.6c0.4,0.5,1,0.8,1.7,1.1c0.7,0.3,1.5,0.4,2.5,0.4c1.5,0,2.7-0.3,3.6-0.9c0.8-0.6,1.4-1.5,1.7-2.6h-1.5 c-0.2,0.8-0.7,1.4-1.3,1.8c-0.6,0.5-1.5,0.7-2.6,0.7c-0.7,0-1.3-0.1-1.8-0.4c-0.5-0.2-0.9-0.5-1.3-0.9c-0.3-0.4-0.6-0.8-0.7-1.2 c-0.2-0.5-0.2-0.9-0.2-1.3h9.4C263.3,109.9,263.3,109.2,263.1,108.6 M253.9,109.6c0.1-0.4,0.2-0.9,0.4-1.3 c0.2-0.4,0.5-0.8,0.8-1.1c0.3-0.3,0.7-0.6,1.2-0.8c0.5-0.2,1-0.3,1.6-0.3c0.6,0,1.1,0.1,1.6,0.3c0.5,0.2,0.9,0.5,1.2,0.8 c0.3,0.3,0.6,0.7,0.8,1.1c0.2,0.4,0.3,0.8,0.3,1.3H253.9z"></path> <rect x="268.6" y="101.6" class="st1" width="1.5" height="13.5"></rect> <path class="st1" d="M285.6,106.6c-0.5-0.5-1.1-0.8-1.8-1.1c-0.7-0.3-1.5-0.4-2.5-0.4c-0.9,0-1.8,0.1-2.5,0.4 c-0.7,0.3-1.3,0.6-1.8,1.1c-0.5,0.5-0.9,1-1.1,1.6c-0.3,0.6-0.4,1.3-0.4,2c0,0.7,0.1,1.4,0.4,2c0.3,0.6,0.6,1.2,1.1,1.6 c0.5,0.5,1.1,0.8,1.8,1.1c0.7,0.3,1.5,0.4,2.5,0.4c0.9,0,1.8-0.1,2.5-0.4c0.7-0.3,1.3-0.6,1.8-1.1c0.5-0.5,0.9-1,1.1-1.6 c0.3-0.6,0.4-1.3,0.4-2c0-0.7-0.1-1.4-0.4-2C286.5,107.6,286.1,107.1,285.6,106.6 M285.4,111.8c-0.2,0.5-0.4,0.9-0.8,1.3 c-0.4,0.4-0.8,0.7-1.3,0.9c-0.5,0.2-1.2,0.4-1.9,0.4c-0.7,0-1.3-0.1-1.9-0.4c-0.5-0.2-1-0.6-1.3-0.9c-0.4-0.4-0.6-0.8-0.8-1.3 s-0.3-1-0.3-1.5c0-0.5,0.1-1,0.3-1.5s0.4-0.9,0.8-1.3c0.4-0.4,0.8-0.7,1.3-0.9c0.5-0.2,1.2-0.4,1.9-0.4c0.7,0,1.3,0.1,1.9,0.4 c0.5,0.2,1,0.6,1.3,0.9c0.4,0.4,0.6,0.8,0.8,1.3c0.2,0.5,0.3,1,0.3,1.5C285.6,110.8,285.5,111.3,285.4,111.8"></path> <path class="st1" d="M302.5,106.6c-0.5-0.5-1-0.8-1.7-1.1c-0.7-0.3-1.5-0.4-2.4-0.4c-1,0-1.9,0.2-2.7,0.6 c-0.8,0.4-1.3,0.9-1.7,1.6h0v-1.9h-1.4v13.3h1.5v-5.4h0c0.2,0.4,0.4,0.7,0.7,0.9c0.3,0.3,0.6,0.5,1,0.7c0.4,0.2,0.8,0.3,1.2,0.4 c0.4,0.1,0.9,0.1,1.3,0.1c0.9,0,1.7-0.1,2.4-0.4c0.7-0.3,1.3-0.6,1.7-1.1c0.5-0.5,0.8-1,1-1.6c0.2-0.6,0.3-1.3,0.3-2 c0-0.7-0.1-1.4-0.3-2C303.3,107.7,303,107.1,302.5,106.6 M302.1,111.8c-0.1,0.5-0.4,0.9-0.7,1.3c-0.3,0.4-0.7,0.7-1.2,1 c-0.5,0.2-1.1,0.4-1.8,0.4c-0.8,0-1.5-0.1-2-0.4c-0.5-0.2-1-0.6-1.3-1c-0.3-0.4-0.6-0.8-0.7-1.3c-0.2-0.5-0.2-1-0.2-1.5 c0-0.6,0.1-1.1,0.2-1.6s0.4-0.9,0.7-1.3c0.3-0.4,0.8-0.7,1.3-0.9c0.6-0.2,1.2-0.3,2.1-0.3c0.7,0,1.3,0.1,1.8,0.4 c0.5,0.2,0.9,0.6,1.2,1c0.3,0.4,0.6,0.8,0.7,1.3c0.1,0.5,0.2,1,0.2,1.5C302.4,110.8,302.3,111.3,302.1,111.8"></path> <path class="st1" d="M322.2,105.1c-0.8,0-1.6,0.2-2.3,0.5c-0.7,0.3-1.2,0.8-1.6,1.4c-0.2-0.6-0.7-1.1-1.3-1.4 c-0.7-0.3-1.4-0.5-2.2-0.5c-1,0-1.8,0.2-2.4,0.5c-0.6,0.3-1.2,0.8-1.5,1.4h-0.1v-1.6h-1.4v9.8h1.5v-5.4c0-0.5,0.1-1,0.2-1.4 c0.1-0.4,0.4-0.8,0.6-1.1c0.3-0.3,0.7-0.6,1.1-0.8c0.5-0.2,1-0.3,1.6-0.3c0.5,0,0.9,0.1,1.2,0.2c0.3,0.1,0.6,0.3,0.8,0.5 c0.2,0.2,0.3,0.5,0.4,0.8c0.1,0.3,0.1,0.6,0.1,0.9v6.6h1.5v-5.5c0-0.5,0.1-0.9,0.2-1.3c0.1-0.4,0.3-0.8,0.5-1.1 c0.3-0.3,0.6-0.6,1-0.8c0.4-0.2,1-0.3,1.6-0.3c1.1,0,1.8,0.2,2.2,0.6c0.4,0.4,0.6,1,0.6,1.8v6.6h1.5v-6.6 C326.3,106.2,324.9,105.1,322.2,105.1"></path> <path class="st1" d="M342.4,108.6c-0.2-0.7-0.5-1.2-0.9-1.8c-0.4-0.5-1-0.9-1.7-1.2c-0.7-0.3-1.5-0.5-2.5-0.5 c-1,0-1.8,0.1-2.5,0.4c-0.7,0.3-1.3,0.7-1.7,1.2c-0.4,0.5-0.8,1-1,1.7c-0.2,0.6-0.3,1.2-0.3,1.9c0,0.7,0.1,1.4,0.3,2 s0.5,1.2,1,1.6c0.4,0.5,1,0.8,1.7,1.1c0.7,0.3,1.5,0.4,2.5,0.4c1.5,0,2.7-0.3,3.6-0.9c0.8-0.6,1.4-1.5,1.7-2.6h-1.5 c-0.2,0.8-0.7,1.4-1.3,1.8c-0.6,0.5-1.5,0.7-2.6,0.7c-0.7,0-1.3-0.1-1.8-0.4s-0.9-0.5-1.3-0.9c-0.3-0.4-0.6-0.8-0.7-1.2 c-0.2-0.5-0.2-0.9-0.2-1.3h9.4C342.6,109.9,342.6,109.2,342.4,108.6 M333.2,109.6c0.1-0.4,0.2-0.9,0.4-1.3 c0.2-0.4,0.5-0.8,0.8-1.1c0.3-0.3,0.7-0.6,1.2-0.8c0.5-0.2,1-0.3,1.6-0.3c0.6,0,1.1,0.1,1.6,0.3c0.5,0.2,0.9,0.5,1.2,0.8 c0.3,0.3,0.6,0.7,0.8,1.1c0.2,0.4,0.3,0.8,0.3,1.3H333.2z"></path> <path class="st1" d="M356.8,106.1c-0.3-0.3-0.8-0.6-1.4-0.7c-0.6-0.2-1.3-0.3-2.1-0.3c-0.9,0-1.7,0.2-2.4,0.5 c-0.7,0.4-1.2,0.8-1.5,1.4h0v-1.7h-1.5v9.8h1.5v-5.7c0-0.5,0.1-0.9,0.3-1.3c0.2-0.4,0.4-0.8,0.8-1.1c0.3-0.3,0.7-0.5,1.2-0.7 c0.5-0.2,1-0.3,1.6-0.3c0.6,0,1.1,0.1,1.5,0.2c0.4,0.2,0.7,0.4,1,0.6c0.2,0.3,0.4,0.6,0.5,0.9c0.1,0.4,0.1,0.7,0.1,1.2v6.1h1.5 v-6.3c0-0.6-0.1-1.1-0.2-1.6C357.4,106.8,357.2,106.4,356.8,106.1"></path> <path class="st1" d="M368.7,106.4v-1h-2.5v-2.9h-1.5v2.9h-2.1v1h2.1v6.7c0,0.8,0.2,1.4,0.6,1.7c0.4,0.3,1.1,0.5,2.1,0.5 c0.2,0,0.4,0,0.7,0c0.2,0,0.4,0,0.7,0v-1c-0.4,0-0.9,0.1-1.3,0.1c-0.5,0-0.9-0.1-1-0.4c-0.1-0.2-0.2-0.5-0.2-0.9v-6.6H368.7z"></path> </g> <g class="st0"> <defs> <path id="SVGID_5_" d="M381.7,52.6c-9.2,11.4-17.4,19.8-27.4,26.8c-10,7-11-6.6-11-6.6c-1.8,9.3,1,16.5,7.4,16.5 c5.8,0,8.8-2.6,15.6-9.5c6.9-6.9,20.9-27.1,35.3-35.7c14.4-8.7,25.1,11.1,25.1,11.1c-2-11.4-12.2-22.2-20.2-22.2 S390.9,41.2,381.7,52.6"></path> </defs> <clipPath id="SVGID_6_"> <use xlink:href="#SVGID_5_" style="overflow:visible;"></use> </clipPath> <linearGradient id="SVGID_7_" gradientUnits="userSpaceOnUse" x1="0" y1="155.229" x2="1" y2="155.229" gradientTransform="matrix(84.082 0 0 -84.082 342.8623 13113.1045)"> <stop offset="0" style="stop-color:#183E7A"></stop> <stop offset="0.3283" style="stop-color:#69ACDF"></stop> <stop offset="0.5303" style="stop-color:#69ACDF"></stop> <stop offset="1" style="stop-color:#183E7A"></stop> </linearGradient> <rect x="341.6" y="33" class="st2" width="85.3" height="56.2"></rect> </g> <g class="st0"> <defs> <path id="SVGID_8_" d="M106.5,59.5V79c0,1.8,0.2,3.4,0.7,4.8c0.5,1.4,1.2,2.6,2.2,3.5c1,1,2.3,1.7,3.9,2.2 c1.4,0.5,3.2,0.7,5.2,0.8v-3.1c-2.4-0.2-4.2-0.9-5.3-2c-1.4-1.4-2.2-3.4-2.3-6.2V59.5H106.5z M130.8,59.5V79 c-0.1,2.7-0.8,4.8-2.3,6.2c-1.1,1.1-2.9,1.8-5.3,2v3.1c2,0,3.7-0.3,5.2-0.8c1.6-0.5,2.9-1.3,3.9-2.2c1-1,1.7-2.1,2.2-3.5 c0.5-1.4,0.7-3,0.7-4.8V59.5H130.8z M146.6,61.4c-4.4,2.7-4.2,7.1-4.2,9.7v18.4h4.4V70.6c0-9.3,9.9-7.9,11.8-7.8v-3.7 C152,59.1,149,59.9,146.6,61.4 M43.9,59.1c-1.6,0.3-3,0.8-4.3,1.5c-1.3,0.7-2.4,1.5-3.2,2.6c-0.8,1.1-1.2,2.4-1.2,3.9 c0,1.3,0.3,2.4,0.8,3.2c0.5,0.9,1.2,1.6,2.1,2.2c0.9,0.6,2,1.1,3.2,1.5c1.2,0.4,2.5,0.8,4,1.1l5.6,1c1,0.2,1.9,0.4,2.9,0.7 c0.9,0.3,1.8,0.6,2.5,1c0.7,0.4,1.3,0.9,1.8,1.5c0.4,0.6,0.7,1.3,0.7,2.2c0,1-0.3,1.9-0.9,2.6c-0.6,0.7-1.4,1.3-2.4,1.8 c-1,0.5-2,0.6-3.2,0.8c-1.1,0.2-2.2,0.3-3.3,0.3H43v3.2c1.7,0,3.6-0.1,5.7-0.1c1.7,0,3.6-0.3,5.1-0.4c1.7-0.2,3.3-0.8,4.6-1.5 c1.4-0.7,2.5-1.6,3.4-2.8c0.9-1.1,1.3-2.5,1.3-4.2c0-1.3-0.3-2.5-0.9-3.4c-0.6-1-1.4-1.8-2.3-2.4c-1-0.7-2-1.2-3.3-1.6 c-1.2-0.4-2.5-0.7-3.7-0.8L47,72c-0.7-0.2-1.6-0.4-2.4-0.6c-0.9-0.3-1.7-0.6-2.4-1c-0.7-0.4-1.4-0.9-1.8-1.4 c-0.5-0.6-0.7-1.2-0.7-2.1c0-1,0.3-1.8,0.8-2.4c0.5-0.7,1.2-1.2,2-1.6c0.8-0.4,1.8-0.7,2.7-0.9c1-0.2,2-0.3,3-0.3 c1.3,0,2.4,0.1,3.5,0.4c1.1,0.3,2.1,0.6,3,1.2c0.9,0.5,1.5,1.2,2.1,2.1c0.5,0.8,0.8,1.8,0.8,2.9h4.4c-0.1-1.6-0.5-3-1.2-4.2 c-0.7-1.2-1.6-2.2-2.8-3c-1.2-0.8-2.5-1.4-4.1-1.8c-1.6-0.4-3.2-0.6-5-0.6C47.1,58.7,45.5,58.8,43.9,59.1 M78.3,86.2 c-1.6-0.7-2.9-1.7-3.9-2.9c-1-1.2-1.8-2.6-2.4-4.1c-0.5-1.5-0.8-3.1-0.8-4.7c0-1.6,0.3-3.1,0.8-4.7c0.5-1.5,1.3-2.9,2.4-4.1 c1-1.2,2.4-2.2,3.9-2.9c1.6-0.7,3.4-1.1,5.5-1.1s3.9,0.4,5.5,1.1c1.6,0.7,2.9,1.7,3.9,2.9c1,1.2,1.8,2.6,2.4,4.1 c0.5,1.5,0.8,3.1,0.8,4.7c0,1.6-0.3,3.1-0.8,4.7c-0.5,1.5-1.3,2.9-2.4,4.1c-1,1.2-2.4,2.2-3.9,2.9c-1.6,0.7-3.4,1.1-5.5,1.1 S79.9,86.9,78.3,86.2 M76.5,59.9c-2.1,0.9-3.9,2-5.3,3.4c-1.4,1.4-2.5,3.1-3.3,5c-0.7,1.9-1.1,4-1.1,6.1c0,2.2,0.4,4.2,1.1,6.1 c0.7,1.9,1.8,3.6,3.3,5c1.4,1.4,3.2,2.6,5.3,3.4c2.1,0.8,4.5,1.2,7.3,1.2c2.7,0,5.2-0.4,7.3-1.2c2.1-0.8,3.9-2,5.3-3.4 c1.4-1.4,2.5-3.1,3.3-5c0.7-1.9,1.1-4,1.1-6.1c0-2.2-0.4-4.2-1.1-6.1c-0.7-1.9-1.8-3.6-3.3-5c-1.4-1.4-3.2-2.6-5.3-3.4 c-2.1-0.9-4.5-1.3-7.3-1.3C81.1,58.7,78.6,59.1,76.5,59.9 M171.5,59.9c-2.1,0.9-3.9,2-5.3,3.4c-1.4,1.4-2.5,3.1-3.3,5 c-0.7,1.9-1.1,4-1.1,6.1c0,2.2,0.4,4.2,1.1,6.1c0.7,1.9,1.8,3.6,3.3,5c1.4,1.4,3.2,2.6,5.3,3.4c2.1,0.8,4.5,1.2,7.3,1.2 c4.1,0,7.4-1,10-3.1c2.6-2,4.2-4.9,4.8-8.5h-4.4c-0.1,1.2-0.5,2.4-1.1,3.4c-0.6,1-1.4,1.9-2.3,2.7c-0.9,0.8-2,1.3-3.2,1.8 c-1.2,0.4-2.5,0.6-3.8,0.6c-2.1,0-3.9-0.4-5.5-1.1c-1.6-0.7-2.9-1.7-3.9-2.9c-1-1.2-1.8-2.6-2.4-4.1c-0.5-1.5-0.8-3.1-0.8-4.7 c0-1.6,0.3-3.1,0.8-4.7c0.5-1.5,1.3-2.9,2.4-4.1c1-1.2,2.4-2.2,3.9-2.9c1.6-0.7,3.4-1.1,5.5-1.1c2.9,0,5.2,0.6,6.8,1.9 c1.6,1.3,2.7,3,3.3,5.3h4.4c-0.5-3.4-2.1-6-4.8-7.7c-2.7-1.7-5.9-2.6-9.8-2.6C176.1,58.7,173.6,59.1,171.5,59.9 M206.9,60 c-2.1,0.9-3.7,2.1-5,3.6s-2.3,3.2-2.9,5.1c-0.6,1.9-0.9,3.8-0.9,5.8c0,2.1,0.3,4.2,0.9,6.1c0.6,1.9,1.6,3.6,2.9,5.1 c1.3,1.5,3,2.6,5,3.4c2.1,0.8,4.5,1.2,7.3,1.2c4.5,0,8.1-0.9,10.5-2.8c2.5-1.9,4.2-4.5,5.1-7.9h-4.4c-0.7,2.3-1.9,4.2-3.8,5.6 c-1.8,1.4-4.3,2.1-7.5,2.1c-2.1,0-3.9-0.4-5.4-1.1s-2.7-1.7-3.7-2.8c-1-1.1-1.7-2.4-2.1-3.8c-1.5-5.7-0.1-9.9,0.5-11.2 c0.6-1.3,1.4-2.4,2.3-3.4c1-1,2.2-1.8,3.5-2.4c1.4-0.6,3-0.9,4.8-0.9c1.8,0,3.3,0.3,4.7,0.9c1.4,0.6,2.6,1.4,3.5,2.4 c1,1,1.7,2.1,2.3,3.4c0.5,1.3,0.8,2.6,0.9,4h-19.8v3.1H230c0.1-2.1-0.1-4.2-0.7-6.2s-1.5-3.8-2.7-5.4c-1.3-1.6-2.9-2.8-5-3.8 c-2-1-4.5-1.5-7.4-1.5C211.4,58.7,208.9,59.1,206.9,60"></path> </defs> <clipPath id="SVGID_9_"> <use xlink:href="#SVGID_8_" style="overflow:visible;"></use> </clipPath> <linearGradient id="SVGID_10_" gradientUnits="userSpaceOnUse" x1="0" y1="155.2301" x2="1" y2="155.2301" gradientTransform="matrix(0 33.0341 33.0341 0 -4995.249 60.1099)"> <stop offset="0" style="stop-color:#C4C4C4"></stop> <stop offset="0.8044" style="stop-color:#8D8C8C"></stop> <stop offset="1" style="stop-color:#8D8C8C"></stop> </linearGradient> <rect x="35.2" y="58.7" class="st3" width="194.9" height="31.7"></rect> </g> <g class="st0"> <defs> <path id="SVGID_11_" d="M232.4,59.5l11.5,30h4l-1.6-4.3l0,0L237,59.5H232.4z M255.1,59.5l-6.4,18.9l2,5.4l6.8-19.5h0.1l8.8,25.2 h4l-1.5-4.3l0,0l-8.9-25.7H255.1z M278.1,59.5l-6.8,19.1l2,5.5l9.4-24.5H278.1z M330,61.4c-4.4,2.7-4.2,7.1-4.2,9.7v18.4h4.4 V70.6c0-9.3,9.9-7.9,11.8-7.8v-3.7C335.4,59.1,332.4,59.9,330,61.4 M297,86.2c-1.6-0.7-2.9-1.7-3.9-2.9c-1-1.2-1.8-2.6-2.4-4.1 c-0.5-1.5-0.8-3.1-0.8-4.7c0-1.6,0.3-3.1,0.8-4.7c0.5-1.5,1.3-2.9,2.4-4.1c1-1.2,2.4-2.2,3.9-2.9c1.6-0.7,3.4-1.1,5.5-1.1 c2.1,0,3.9,0.4,5.5,1.1c1.6,0.7,2.9,1.7,3.9,2.9c1,1.2,1.8,2.6,2.4,4.1c0.5,1.5,0.8,3.1,0.8,4.7c0,1.6-0.3,3.1-0.8,4.7 c-0.5,1.5-1.3,2.9-2.4,4.1c-1,1.2-2.4,2.2-3.9,2.9c-1.6,0.7-3.4,1.1-5.5,1.1C300.4,87.3,298.6,86.9,297,86.2 M295.2,59.9 c-2.1,0.9-3.9,2-5.3,3.4c-1.4,1.4-2.5,3.1-3.3,5c-0.7,1.9-1.1,4-1.1,6.1c0,2.2,0.4,4.2,1.1,6.1c0.7,1.9,1.8,3.6,3.3,5 c1.4,1.4,3.2,2.6,5.3,3.4c2.1,0.8,4.5,1.2,7.3,1.2c2.7,0,5.2-0.4,7.3-1.2s3.9-2,5.3-3.4c1.4-1.4,2.5-3.1,3.3-5 c0.7-1.9,1.1-4,1.1-6.1c0-2.2-0.4-4.2-1.1-6.1c-0.7-1.9-1.8-3.6-3.3-5c-1.4-1.4-3.2-2.6-5.3-3.4c-2.1-0.9-4.5-1.3-7.3-1.3 C299.8,58.7,297.4,59.1,295.2,59.9"></path> </defs> <clipPath id="SVGID_12_"> <use xlink:href="#SVGID_11_" style="overflow:visible;"></use> </clipPath> <linearGradient id="SVGID_13_" gradientUnits="userSpaceOnUse" x1="0" y1="155.229" x2="1" y2="155.229" gradientTransform="matrix(0 -48.9353 -48.9353 0 7883.3608 92.1545)"> <stop offset="0" style="stop-color:#69ACDF"></stop> <stop offset="4.905014e-02" style="stop-color:#5B9BCF"></stop> <stop offset="0.218" style="stop-color:#34679F"></stop> <stop offset="0.3405" style="stop-color:#224B86"></stop> <stop offset="0.403" style="stop-color:#1B427D"></stop> <stop offset="1" style="stop-color:#183E7A"></stop> </linearGradient> <rect x="232.4" y="58.7" class="st4" width="109.6" height="31.7"></rect> </g> <g class="st0"> <defs> <path id="SVGID_14_" d="M348.3,54.7c8-9.6,12.1-8.4,14.3-5c0.9,1.4,4.1,7.1,7.5,14c1.2-1.3,2.4-2.6,3.6-3.9 c-0.4-0.7-0.8-1.4-1.2-2.1c-6.3-10.7-8.3-14.4-13.8-14.4C353.1,43.3,348.3,54.7,348.3,54.7"></path> </defs> <clipPath id="SVGID_15_"> <use xlink:href="#SVGID_14_" style="overflow:visible;"></use> </clipPath> <linearGradient id="SVGID_16_" gradientUnits="userSpaceOnUse" x1="1.802399e-05" y1="155.229" x2="1" y2="155.229" gradientTransform="matrix(25.3975 0 0 -25.3975 348.2745 3995.9294)"> <stop offset="0" style="stop-color:#183E7A"></stop> <stop offset="0.3283" style="stop-color:#69ACDF"></stop> <stop offset="0.5303" style="stop-color:#69ACDF"></stop> <stop offset="1" style="stop-color:#183E7A"></stop> </linearGradient> <rect x="348.3" y="43.3" class="st5" width="25.4" height="20.5"></rect> </g> <g class="st0"> <defs> <path id="SVGID_17_" d="M427.7,95.9c-2.4,3.6-9.9,10.1-24,0.9c-11.6-7.5-19.4-18.8-25.2-28.6c-1.2,1.4-2.4,2.8-3.4,4.1 c-0.2,0.2-0.4,0.5-0.6,0.7c0.5,1.1,1,2.1,1.4,3.1c3.6,8.1,11.5,18.4,17,24.3c11.9,12.7,32,23.2,39.1,6.9 c7.8-17.9-1.5-39.9-1.5-39.9C432.6,74,430.1,92.2,427.7,95.9"></path> </defs> <clipPath id="SVGID_18_"> <use xlink:href="#SVGID_17_" style="overflow:visible;"></use> </clipPath> <linearGradient id="SVGID_19_" gradientUnits="userSpaceOnUse" x1="-1.206863e-05" y1="155.1636" x2="1" y2="155.1636" gradientTransform="matrix(60.6881 0 0 -60.6881 374.4497 9511.96)"> <stop offset="0" style="stop-color:#183E7A"></stop> <stop offset="0.3283" style="stop-color:#69ACDF"></stop> <stop offset="0.5303" style="stop-color:#69ACDF"></stop> <stop offset="1" style="stop-color:#183E7A"></stop> </linearGradient> <rect x="374.4" y="67.3" class="st6" width="65.4" height="56.2"></rect> </g> </g> </svg> 